<?xml version="1.0" standalone="no"?>
<!DOCTYPE svg PUBLIC "-//W3C//DTD SVG 20010904//EN"
 "http://www.w3.org/TR/2001/REC-SVG-20010904/DTD/svg10.dtd">
<svg version="1.0" xmlns="http://www.w3.org/2000/svg"
 width="575.000000pt" height="201.000000pt" viewBox="0 0 575.000000 201.000000"
 preserveAspectRatio="xMidYMid meet">

<g transform="translate(0.000000,201.000000) scale(0.100000,-0.100000)"
fill="#000000" stroke="none">
<path d="M4223 1425 c-33 -23 -32 -79 2 -101 61 -40 136 31 93 89 -19 25 -69
31 -95 12z"/>
<path d="M1095 1361 c-115 -28 -175 -118 -175 -263 0 -100 27 -167 85 -216 69
-56 189 -66 276 -22 50 26 53 33 27 66 -12 16 -23 31 -25 33 -2 3 -21 -5 -42
-17 -48 -27 -96 -28 -138 -2 -60 36 -82 195 -38 280 33 63 103 81 168 42 l34
-20 27 35 c34 42 25 56 -47 78 -54 16 -103 18 -152 6z"/>
<path d="M1495 1359 c-40 -15 -82 -55 -108 -104 -19 -34 -22 -56 -22 -155 0
-108 2 -118 29 -168 35 -62 76 -91 144 -99 90 -10 160 28 205 112 19 34 22 56
22 155 0 107 -2 118 -28 165 -37 67 -81 96 -154 101 -32 2 -71 -1 -88 -7z
m120 -99 c44 -49 42 -278 -3 -323 -25 -25 -68 -25 -93 -1 -39 40 -50 233 -16
303 23 49 78 59 112 21z"/>
<path d="M2395 1359 c-40 -15 -82 -55 -108 -104 -19 -34 -22 -56 -22 -155 0
-108 2 -118 29 -168 35 -62 76 -91 144 -99 90 -10 160 28 205 112 19 34 22 56
22 155 0 107 -2 118 -28 165 -37 67 -81 96 -154 101 -32 2 -71 -1 -88 -7z
m120 -99 c44 -49 42 -278 -3 -323 -25 -25 -68 -25 -93 -1 -39 40 -50 233 -16
303 23 49 78 59 112 21z"/>
<path d="M1793 1313 c3 -27 16 -144 29 -261 l22 -213 66 3 65 3 17 150 c9 83
18 161 19 175 2 37 16 -52 30 -200 l12 -130 63 0 63 0 5 33 c6 36 56 463 56
478 0 6 -23 9 -52 7 l-53 -3 -11 -183 c-6 -100 -13 -185 -16 -187 -2 -3 -10
50 -17 118 -7 67 -15 139 -18 160 l-6 37 -52 0 -53 0 -18 -162 c-17 -143 -20
-157 -26 -113 -3 28 -7 91 -7 140 -1 50 -4 114 -7 143 l-7 52 -55 0 -55 0 6
-47z"/>
<path d="M2730 1101 l0 -261 65 0 65 0 0 101 c0 89 2 100 17 97 10 -2 41 -46
72 -101 l55 -97 68 0 c80 0 80 -13 -7 126 l-54 87 46 41 c40 37 46 47 50 92 7
70 -17 118 -71 146 -34 18 -64 22 -173 26 l-133 5 0 -262z m232 152 c11 -10
18 -30 18 -53 0 -46 -22 -67 -78 -76 l-42 -7 0 83 0 83 42 -7 c23 -4 50 -14
60 -23z"/>
<path d="M3180 1100 l0 -260 65 0 65 0 0 138 1 137 72 -137 72 -138 68 0 c37
0 67 2 67 5 0 2 -34 64 -75 138 -41 73 -75 137 -75 143 0 5 31 59 69 119 l70
110 -62 3 c-43 2 -65 -1 -70 -10 -5 -7 -37 -62 -73 -123 l-64 -110 0 123 0
122 -65 0 -65 0 0 -260z"/>
<path d="M4670 1331 c-45 -6 -45 -6 -48 -48 -3 -43 -3 -43 -43 -43 -39 0 -39
0 -39 -40 l0 -40 40 0 40 0 0 -110 c0 -139 12 -173 72 -200 52 -24 88 -25 156
-5 l51 16 -16 33 c-16 34 -17 34 -68 29 -77 -8 -85 4 -85 133 l0 104 59 0 c58
0 59 1 65 31 3 17 6 35 6 40 0 5 -29 9 -65 9 l-65 0 0 50 c0 28 -3 49 -7 48
-5 0 -28 -4 -53 -7z"/>
<path d="M4110 1200 l0 -40 55 0 55 0 0 -120 0 -120 -55 0 -55 0 0 -40 0 -40
160 0 160 0 0 40 0 40 -50 0 -50 0 0 160 0 160 -110 0 -110 0 0 -40z"/>
<path d="M3759 971 c-17 -18 -29 -40 -29 -56 0 -35 50 -85 85 -85 16 0 38 12
56 29 17 18 29 40 29 56 0 35 -50 85 -85 85 -16 0 -38 -12 -56 -29z"/>
</g>
</svg>
